#!OML:ASF E:\emotionWalksFemale\Project 1\Capture day 1\Session 1\Female1.ASF
:FULLY-SPECIFIED
:DEGREES
1757
root -7.63627 15.0506 31.8778 893.587 -201.778 -546.47
lowerback 7.69041 -1.565 2.89532
upperback -4.75112 -1.53368 2.46197
thorax -9.3898 -0.829341 1.23606
lowerneck -7.90319 6.25954 5.31837
upperneck 15.2468 8.95141 -6.63638
head 6.47122 4.17085 -2.24116
rclavicle -1.2921e-014 -6.95746e-015
rhumerus -56.6505 -8.08178 -52.2693
rradius 31.5608
rwrist 8.17401
rhand -7.58585 -61.5607
rfingers 7.12502
rthumb -161.693 -89.2808
lclavicle -1.2921e-014 -6.95746e-015
lhumerus -36.7259 -17.2145 88.2243
lradius 77.6744
lwrist 2.08464
lhand -2.60488 -28.1996
lfingers 7.12502
lthumb 23.0931 0.436522
rfemur -7.62312 11.5842 19.6513
rtibia 12.4444
rfoot 1.95277 -25.6355
rtoes -22.4707
lfemur 2.31807 -6.21643 -14.9006
ltibia 59.7983
lfoot -13.7916 13.4077
ltoes -1.01653
1758
root -7.62618 15.0671 31.9937 893.329 -202.037 -546.714
lowerback 8.2406 -1.3261 3.27904
upperback -4.60206 -1.13441 2.56659
thorax -9.55888 -0.655367 1.08138
lowerneck -7.31438 7.13377 6.27217
upperneck 14.6569 10.176 -7.59611
head 6.36087 4.76929 -2.60479
rclavicle 5.73991e-015 3.06128e-014
rhumerus -55.3185 -7.55382 -54.2232
rradius 31.6552
rwrist 8.88071
rhand -7.50129 -61.485
rfingers 7.12502
rthumb -161.611 -89.3641
lclavicle 5.73991e-015 3.06128e-014
lhumerus -37.5098 -16.4628 89.3099
lradius 75.5322
lwrist 1.68939
lhand -2.98951 -28.7058
lfingers 7.12502
lthumb 22.724 -0.0239787
rfemur -7.12894 11.2581 20.1795
rtibia 12.8515
rfoot 1.1289 -26.1067
rtoes -21.6169
lfemur 0.680504 -5.41209 -14.6917
ltibia 62.2848
lfoot -13.7314 13.7837
ltoes 1.21038
1759
root -7.61727 15.0832 32.1034 893.33 -202.377 -546.463
lowerback 8.85002 -1.01923 3.29902
upperback -4.46107 -0.695585 2.54066
thorax -9.76158 -0.445417 0.980376
lowerneck -7.12925 8.10258 7.00971
upperneck 14.4705 11.524 -8.2363
head 6.45203 5.42349 -2.79803
rclavicle -2.08227e-014 1.97791e-014
rhumerus -53.8695 -6.85543 -56.2233
rradius 31.7433
rwrist 9.53194
rhand -7.68817 -61.2093
rfingers 7.12502
rthumb -161.791 -89.623
lclavicle -2.08227e-014 1.97791e-014
lhumerus -38.0005 -15.614 90.3219
lradius 72.986
lwrist 1.03447
lhand -3.44141 -29.5921
lfingers 7.12502
lthumb 22.2903 -0.857736
rfemur -6.74082 11.0549 20.2139
rtibia 13.3396
rfoot 0.712077 -26.7622
rtoes -22.1938
lfemur -1.03112 -4.55245 -15.0674
ltibia 64.444
lfoot -13.651 13.8252
ltoes 2.32833
1760
root -7.61223 15.1065 32.2235 893.422 -202.78 -546.001
lowerback 9.24402 -0.746147 2.95742
upperback -4.43447 -0.361612 2.4738
thorax -9.95849 -0.265563 1.04943
lowerneck -6.48395 9.13788 7.76752
upperneck 14.5041 12.9752 -8.61528
head 6.5455 6.15842 -2.91131
rclavicle -3.73467e-014 7.55382e-015
rhumerus -52.6526 -5.66846 -58.3364
rradius 31.8569
rwrist 9.98995
rhand -7.96121 -60.2935
rfingers 7.12502
rthumb -162.054 -269.486
lclavicle -3.73467e-014 7.55382e-015
lhumerus -38.9172 -14.6895 91.1448
lradius 70.398
lwrist 0.286443
lhand -4.05579 -30.1965
lfingers 7.12502
lthumb 21.7004 -1.3927
rfemur -6.33661 11.4101 20.0425
rtibia 13.8907
rfoot -0.638778 -28.0164
rtoes -19.5334
lfemur -2.66501 -3.67245 -15.6952
ltibia 66.2561
lfoot -13.7609 13.6467
ltoes 1.6143
1761
root -7.61059 15.1318 32.351 893.416 -203.092 -545.872
lowerback 9.56736 -0.448252 2.83984
upperback -4.32673 0.0331905 2.46788
thorax -10.0285 -0.0677691 1.04091
lowerneck -5.82582 10.0033 8.7354
upperneck 14.1271 14.2213 -9.46006
head 6.55495 6.78028 -3.2245
rclavicle 1.69464e-014 -1.39149e-014
rhumerus -51.2803 -4.48662 -60.4251
rradius 31.9521
rwrist 10.3627
rhand -8.3899 -60.8142
rfingers 7.12502
rthumb -162.466 -89.9565
lclavicle 1.69464e-014 -1.39149e-014
lhumerus -39.5363 -13.7185 91.7629
lradius 67.4958
lwrist -0.663094
lhand -5.04401 -31.3446
lfingers 7.12502
lthumb 20.7511 -2.43415
rfemur -5.92893 12.5103 20.2184
rtibia 14.402
rfoot -2.87521 -29.7656
rtoes -12.8753
lfemur -4.23028 -2.62939 -15.8929
ltibia 67.7592
lfoot -14.3311 12.8812
ltoes 1.41651
1762
root -7.60435 15.1554 32.4762 893.396 -203.398 -545.907
lowerback 9.83651 -0.179751 2.93778
upperback -4.20326 0.417419 2.48673
thorax -10.0502 0.11198 0.936347
lowerneck -5.45461 10.8872 9.53663
upperneck 14.1168 15.4692 -9.89931
head 6.70853 7.40614 -3.35765
rclavicle -4.92241e-014 2.90226e-014
rhumerus -49.8256 -3.25725 -62.4326
rradius 32.1158
rwrist 10.8335
rhand -7.97511 -58.9631
rfingers 7.12502
rthumb -162.067 -268.156
lclavicle -4.92241e-014 2.90226e-014
lhumerus -40.1646 -12.6376 92.1395
lradius 64.6006
lwrist -1.91894
lhand -6.61943 -31.1793
lfingers 7.12502
lthumb 19.2368 -2.11069
rfemur -5.44516 13.4182 20.5982
rtibia 14.6764
rfoot -4.00679 -31.23
rtoes -9.96464
lfemur -5.83579 -1.35036 -15.9138
ltibia 69.012
lfoot -14.4343 11.9916
ltoes -0.822257
1763
root -7.5907 15.1825 32.5986 893.515 -203.768 -545.83
lowerback 9.96749 0.0819703 2.98663
upperback -4.0952 0.779401 2.50303
thorax -10.0061 0.284502 0.858661
lowerneck -5.13924 11.7441 10.1691
upperneck 14.2 16.6951 -10.2317
head 6.89165 8.01581 -3.42122
rclavicle 6.39093e-014 -1.64991e-014
rhumerus -48.3872 -2.02716 -64.2157
rradius 32.3615
rwrist 11.3919
rhand -8.18517 -57.5148
rfingers 7.12502
rthumb -162.269 -266.726
lclavicle 6.39093e-014 -1.64991e-014
lhumerus -40.6782 -11.3978 92.3345
lradius 61.6633
lwrist -3.84168
lhand -7.38714 -29.4161
lfingers 7.12502
lthumb 18.4985 -0.275683
rfemur -4.92157 14.1075 20.831
rtibia 14.6994
rfoot -4.84971 -32.5916
rtoes -9.63846
lfemur -7.5061 -0.13917 -16.202
ltibia 70.0325
lfoot -14.4618 11.1026
ltoes -1.90089
1764
root -7.57272 15.2128 32.7177 893.635 -204.224 -545.79
lowerback 10.0874 0.363294 3.20512
upperback -3.98158 1.18489 2.45788
thorax -9.94416 0.464938 0.611042
lowerneck -5.06799 12.5247 10.6889
upperneck 14.4354 17.8026 -10.416
head 7.14082 8.559 -3.40961
rclavicle -4.80313e-014 -2.88238e-014
rhumerus -46.9798 -1.01985 -65.6833
rradius 32.6959
rwrist 11.5623
rhand -8.54862 -56.0578
rfingers 7.12502
rthumb -162.619 -265.301
lclavicle -4.80313e-014 -2.88238e-014
lhumerus -40.985 -10.2466 92.3787
lradius 58.5013
lwrist -5.89115
lhand -7.07877 -29.1263
lfingers 7.12502
lthumb 18.7951 -0.0143108
rfemur -4.40538 14.879 21.0476
rtibia 14.7293
rfoot -6.57396 -34.0333
rtoes -8.64769
lfemur -9.15873 0.816278 -16.6034
ltibia 70.7866
lfoot -14.8606 10.0049
ltoes 0.682872
1765
root -7.55818 15.2339 32.8322 893.714 -204.826 -545.929
lowerback 10.178 0.619354 3.6222
upperback -3.87888 1.58084 2.38177
thorax -9.86789 0.627636 0.220711
lowerneck -4.31073 12.8927 11.1
upperneck 13.629 18.346 -10.9275
head 6.90122 8.85139 -3.61993
rclavicle 2.08227e-014 1.23246e-014
rhumerus -45.7201 0.190032 -67.2925
rradius 33.3476
rwrist 10.712
rhand -11.3014 -52.2799
rfingers 7.12502
rthumb -165.27 -261.737
lclavicle 2.08227e-014 1.23246e-014
lhumerus -41.1356 -9.28724 92.2226
lradius 55.015
lwrist -7.62933
lhand -7.13085 -29.6997
lfingers 7.12502
lthumb 18.745 -0.582914
rfemur -4.02415 15.5295 21.4267
rtibia 14.9248
rfoot -8.68753 -35.4079
rtoes -8.41739
lfemur -10.9706 1.91385 -16.8031
ltibia 71.3997
lfoot -14.9882 9.1532
ltoes 1.74161
1766
root -7.53645 15.2381 32.9519 893.757 -205.328 -545.984
lowerback 10.1544 0.927085 4.05002
upperback -3.74757 2.03448 2.25889
thorax -9.68166 0.818711 -0.233581
lowerneck -3.84214 13.2831 11.1538
upperneck 13.1844 18.8695 -10.881
head 6.7399 9.13525 -3.58667
rclavicle 3.59055e-014 5.26779e-015
rhumerus -44.6796 1.46105 -68.8289
rradius 33.9349
rwrist 10.4073
rhand -14.8365 -49.4861
rfingers 7.12502
rthumb -168.678 -259.16
lclavicle 3.59055e-014 5.26779e-015
lhumerus -41.3065 -8.18206 91.7878
lradius 51.5503
lwrist -9.86471
lhand -7.03979 -29.2642
lfingers 7.12502
lthumb 18.8326 -0.155905
rfemur -3.52949 15.9699 21.7465
rtibia 15.1617
rfoot -10.5011 -36.4673
rtoes -8.23869
lfemur -12.4986 3.33776 -17.1279
ltibia 71.836
lfoot -15.6133 8.56604
ltoes -0.120852
1767
root -7.51773 15.2339 33.0642 893.881 -206 -546.109
lowerback 10.1948 1.16413 4.49981
upperback -3.74074 2.41109 2.18217
thorax -9.66675 0.970081 -0.636343
lowerneck -3.90382 13.7072 11.0723
upperneck 13.4518 19.4167 -10.4325
head 6.84429 9.41451 -3.35672
rclavicle -2.50717e-014 -1.54058e-014
rhumerus -43.6261 2.52437 -69.8192
rradius 34.5949
rwrist 9.78598
rhand -17.3212 -45.0779
rfingers 7.12502
rthumb -171.075 -254.869
lclavicle -2.50717e-014 -1.54058e-014
lhumerus -41.6084 -6.89548 91.1199
lradius 48.1708
lwrist -12.4176
lhand -6.25094 -28.2492
lfingers 7.12502
lthumb 19.5911 0.783709
rfemur -3.30281 16.6107 22.1173
rtibia 15.6917
rfoot -12.5082 -37.7198
rtoes -7.08962
lfemur -14.2488 4.59426 -17.4921
ltibia 72.1855
lfoot -16.5161 7.99735
ltoes -3.87817
1768
root -7.49316 15.2426 33.1734 894.239 -206.624 -546.273
lowerback 10.0158 1.38938 4.94903
upperback -3.81217 2.76564 2.15213
thorax -9.6058 1.11359 -0.978091
lowerneck -3.50927 13.8776 11.3661
upperneck 13.1734 19.6869 -10.7138
head 6.7778 9.56231 -3.48053
rclavicle 4.65032e-014 -1.3418e-014
rhumerus -42.5265 3.78771 -70.7149
rradius 35.4384
rwrist 9.3723
rhand -16.6939 -45.4489
rfingers 7.12502
rthumb -170.469 -255.213
lclavicle 4.65032e-014 -1.3418e-014
lhumerus -41.9074 -5.56384 90.2695
lradius 44.5891
lwrist -14.5242
lhand -5.8161 -27.9068
lfingers 7.12502
lthumb 20.0091 1.08302
rfemur -3.38571 17.3813 22.4503
rtibia 16.2326
rfoot -14.6015 -38.8262
rtoes -6.08581
lfemur -16.3126 5.89586 -17.9743
ltibia 72.3591
lfoot -17.0377 8.06735
ltoes -9.65444
1769
root -7.46948 15.2291 33.2803 894.518 -207.214 -546.538
lowerback 9.82369 1.60312 5.46976
upperback -3.85398 3.11076 2.12673
thorax -9.49649 1.2504 -1.34958
lowerneck -3.17165 13.9247 11.6349
upperneck 12.8821 19.7789 -10.9887
head 6.69447 9.62192 -3.61887
rclavicle -3.28989e-014 6.95746e-015
rhumerus -41.4553 4.93194 -71.5529
rradius 36.5117
rwrist 9.18235
rhand -16.0496 -46.1517
rfingers 7.12502
rthumb -169.848 -255.887
lclavicle -3.28989e-014 6.95746e-015
lhumerus -42.0696 -3.99056 89.0848
lradius 40.9804
lwrist -16.8976
lhand -5.793 -28.438
lfingers 7.12502
lthumb 20.0313 0.549442
rfemur -3.45112 18.0157 22.8802
rtibia 16.7163
rfoot -16.7583 -39.7156
rtoes -5.46461
lfemur -18.2438 6.95775 -18.3154
ltibia 72.4077
lfoot -18.0553 7.47949
ltoes -5.72204
1770
root -7.44664 15.2257 33.3918 894.677 -207.866 -546.884
lowerback 9.71558 1.76677 5.95954
upperback -3.88453 3.39308 2.14605
thorax -9.4271 1.3599 -1.64573
lowerneck -3.15778 13.9244 11.6542
upperneck 12.8884 19.7773 -10.9715
head 6.69407 9.62413 -3.61721
rclavicle 1.13556e-014 1.0635e-014
rhumerus -40.496 6.29008 -72.2616
rradius 37.7063
rwrist 8.64027
rhand -15.3711 -46.7508
rfingers 7.12502
rthumb -169.193 -256.453
lclavicle 1.13556e-014 1.0635e-014
lhumerus -42.0052 -2.03051 87.5615
lradius 37.417
lwrist -19.7339
lhand -5.47684 -28.7408
lfingers 7.12502
lthumb 20.3352 0.214568
rfemur -3.37769 18.5625 23.4122
rtibia 17.1607
rfoot -19.3876 -40.4066
rtoes -2.82774
lfemur -20.0556 8.02359 -18.6146
ltibia 72.2571
lfoot -18.6479 7.40968
ltoes -3.04438
1771
root -7.42407 15.2187 33.4984 894.714 -208.529 -547.175
lowerback 9.84823 1.90311 6.39247
upperback -3.90275 3.65153 2.17689
thorax -9.4876 1.45716 -1.90289
lowerneck -3.4033 13.9207 11.2619
upperneck 13.114 19.7219 -10.49
head 6.71062 9.59528 -3.40432
rclavicle 6.6481e-014 1.11319e-014
rhumerus -39.5591 7.47335 -72.6118
rradius 38.7722
rwrist 8.35866
rhand -14.7042 -47.0684
rfingers 7.12502
rthumb -168.55 -256.736
lclavicle 6.6481e-014 1.11319e-014
lhumerus -41.8303 0.3222 85.6743
lradius 33.8005
lwrist -22.6719
lhand -5.01163 -28.8078
lfingers 7.12502
lthumb 20.7822 0.0992769
rfemur -3.2335 18.9611 23.9363
rtibia 17.7296
rfoot -21.7461 -41.0033
rtoes 0.458174
lfemur -21.6845 8.99884 -19.0037
ltibia 71.8983
lfoot -18.8943 7.72654
ltoes -0.130599
